<svg version="1.1" id="Layer_1" xmlns="http://www.w3.org/2000/svg" xmlns:xlink="http://www.w3.org/1999/xlink" x="0px" y="0px"
	 width="100%" viewBox="0 0 2000 1500" enable-background="new 0 0 2000 1500" xml:space="preserve">
<path fill="#FFFFFF" opacity="1.000000" stroke="none" 
	d="
M1400.000000,1501.000000 
	C933.333496,1501.000000 467.166931,1501.000000 1.000313,1501.000000 
	C1.000208,1001.000305 1.000208,501.000580 1.000104,1.000648 
	C667.666199,1.000432 1334.332397,1.000432 2000.998901,1.000216 
	C2000.999268,500.999359 2000.999268,1000.998718 2000.999634,1500.999023 
	C1800.833374,1501.000000 1600.666626,1501.000000 1400.000000,1501.000000 
M1247.499146,466.348938 
	C1151.334229,466.348877 1055.169312,466.383209 959.004517,466.244141 
	C954.344971,466.237396 953.145752,467.540405 953.213623,472.093597 
	C953.472107,489.422760 953.310913,506.758057 953.330811,524.091064 
	C953.332520,525.539673 953.515320,526.987976 953.646545,528.914185 
	C994.402954,528.914185 1034.816772,528.914185 1075.290039,528.914185 
	C1075.290039,634.440491 1075.290039,739.460205 1075.290039,844.445312 
	C1007.454712,844.445312 940.090027,844.445312 871.630310,844.445312 
	C908.749390,818.153442 920.907471,782.041321 914.432739,739.711853 
	C907.603638,695.065613 877.684875,671.331482 835.794678,660.231140 
	C836.323486,659.601990 836.478271,659.260742 836.737793,659.134216 
	C838.682434,658.186584 840.655396,657.297424 842.605347,656.360291 
	C858.830688,648.562256 872.946472,638.245483 882.009827,622.255066 
	C892.142883,604.377563 895.063049,584.828308 892.942871,564.774231 
	C888.856873,526.124451 870.357117,497.069733 834.005859,480.986206 
	C808.381470,469.648834 781.096863,466.644623 753.469421,466.498871 
	C701.805359,466.226349 650.139160,466.372955 598.473816,466.363281 
	C597.186707,466.363037 595.899536,466.574371 594.132568,466.729004 
	C594.132568,592.728699 594.132568,718.472229 594.132568,844.933228 
	C575.278564,844.933228 556.917969,844.933228 538.529785,844.933228 
	C538.529785,853.412842 538.529785,861.170166 538.529785,869.150269 
	C847.020447,869.150269 1155.221069,869.150269 1463.500244,869.150269 
	C1463.500244,860.950867 1463.500244,853.174622 1463.500244,844.703735 
	C1444.884155,844.703735 1426.513184,844.703735 1407.640625,844.703735 
	C1407.640625,718.267334 1407.640625,592.528076 1407.640625,466.627930 
	C1384.861816,466.627930 1362.603394,466.627930 1339.609375,466.627930 
	C1339.609375,592.759155 1339.609375,718.613525 1339.609375,844.398315 
	C1273.963379,844.398315 1209.054688,844.398315 1144.126221,844.398315 
	C1144.126221,739.104004 1144.126221,634.189087 1144.126221,528.696838 
	C1184.840088,528.696838 1225.233032,528.696838 1265.665283,528.696838 
	C1265.665283,507.697876 1265.665283,487.278198 1265.665283,466.349274 
	C1259.757080,466.349274 1254.127808,466.349274 1247.499146,466.348938 
M1060.860352,291.804352 
	C1017.143860,285.896729 973.466858,286.517273 929.929810,293.296539 
	C871.921204,302.329224 817.519897,321.726654 766.878540,351.468567 
	C756.762817,357.409607 746.992615,363.938934 737.063110,370.196960 
	C748.761353,371.379425 760.026855,371.442078 771.289734,371.297394 
	C772.645081,371.279999 774.070068,370.274902 775.321350,369.499420 
	C832.890869,333.821625 895.337769,312.767822 962.829895,306.633911 
	C1002.739990,303.006744 1042.344727,305.013245 1081.669922,312.540466 
	C1133.548340,322.470490 1181.828857,341.635040 1226.715332,369.430389 
	C1227.969238,370.206818 1229.368896,371.277527 1230.712769,371.295410 
	C1241.978149,371.445251 1253.246460,371.380615 1264.710693,371.380615 
	C1264.410522,370.608673 1264.383423,370.220398 1264.179565,370.067078 
	C1262.982788,369.166779 1261.758667,368.300903 1260.518677,367.460419 
	C1229.517944,346.448181 1196.462646,329.397583 1161.330200,316.451782 
	C1129.065308,304.562561 1095.902832,296.190948 1060.860352,291.804352 
M1233.055908,1129.525391 
	C1230.461792,1130.473999 1227.614868,1131.012207 1225.310547,1132.431396 
	C1170.001099,1166.493774 1110.024902,1186.968384 1045.487427,1193.846924 
	C1008.887634,1197.747681 972.342346,1196.755493 935.918945,1191.104004 
	C881.846680,1182.714233 831.182068,1164.757568 784.259094,1136.689209 
	C775.724487,1131.583984 767.515442,1128.626343 757.638489,1129.421509 
	C750.946716,1129.960205 744.176392,1129.524536 737.441223,1129.524536 
	C789.195312,1166.591309 846.114685,1191.024292 907.986023,1203.724976 
	C970.110840,1216.477783 1032.370850,1216.515015 1094.479492,1203.617432 
	C1152.714233,1191.524170 1248.242188,1149.789307 1264.642700,1129.525391 
	C1254.200439,1129.525391 1244.074097,1129.525391 1233.055908,1129.525391 
M1078.022339,1000.500366 
	C1078.022339,994.042053 1078.022339,987.583679 1078.022339,980.040527 
	C1075.077881,981.132019 1072.982788,981.908630 1070.379761,982.873474 
	C1062.354614,976.775940 1053.037476,980.034302 1051.057129,990.915649 
	C1050.145752,995.922607 1050.049194,1001.209961 1050.465088,1006.298157 
	C1051.272339,1016.174744 1058.225098,1024.078247 1070.341431,1017.881653 
	C1070.515747,1017.792480 1070.881958,1018.078674 1072.416992,1018.694336 
	C1071.137695,1021.683044 1070.640015,1025.630371 1068.406128,1027.471802 
	C1064.059814,1031.054565 1059.339233,1028.498657 1055.116455,1025.707153 
	C1053.408081,1027.725830 1051.379150,1029.479492 1054.588623,1031.477295 
	C1059.674438,1034.643066 1065.100708,1035.681396 1070.763062,1033.155518 
	C1076.197266,1030.731323 1077.881226,1025.974243 1077.979370,1020.494690 
	C1078.092896,1014.164917 1078.016357,1007.831848 1078.022339,1000.500366 
M568.702942,975.007629 
	C565.644958,972.649048 562.826355,968.780457 559.478577,968.249695 
	C552.740723,967.181580 545.714539,967.931824 538.524780,967.931824 
	C538.524780,984.905334 538.524780,1001.909485 538.524780,1019.172058 
	C540.702454,1019.172058 542.614197,1019.172058 545.093933,1019.172058 
	C545.093933,1012.397339 545.093933,1005.862488 545.093933,998.979065 
	C549.288940,998.979065 552.926758,999.126648 556.548645,998.948853 
	C564.419250,998.562439 569.416077,994.191650 570.110718,986.444153 
	C570.426270,982.925354 569.419495,979.288025 568.702942,975.007629 
M769.028687,1009.305298 
	C769.190796,1004.010498 770.017334,998.634766 769.384338,993.436829 
	C767.795837,980.391479 759.649902,976.623657 748.087891,983.514038 
	C748.087891,977.228516 748.087891,971.168335 748.087891,964.917725 
	C745.838806,964.917725 743.987488,964.917725 742.179688,964.917725 
	C742.179688,983.217712 742.179688,1001.105164 742.179688,1020.187378 
	C744.879822,1019.051941 746.896973,1018.203735 749.487366,1017.114441 
	C757.401855,1023.136169 764.945923,1020.822632 769.028687,1009.305298 
M1113.341431,998.656372 
	C1113.319702,996.823669 1113.370361,994.986755 1113.264771,993.158875 
	C1112.540527,980.608459 1106.022583,976.933167 1095.017944,982.820984 
	C1094.817017,982.928589 1094.418213,982.666382 1093.613770,982.431091 
	C1093.613770,976.661621 1093.613770,970.748108 1093.613770,964.905151 
	C1091.221802,964.905151 1089.336060,964.905151 1087.586548,964.905151 
	C1087.586548,983.249695 1087.586548,1001.159302 1087.586548,1019.026367 
	C1089.846313,1019.026367 1091.738892,1019.026367 1093.862549,1019.026367 
	C1093.862549,1010.131348 1093.735596,1001.637146 1093.916870,993.149475 
	C1094.006104,988.975220 1096.393799,986.284973 1100.665771,985.916931 
	C1105.415649,985.507690 1106.515503,988.874512 1106.870605,992.635010 
	C1107.057983,994.618774 1106.963623,996.630737 1106.966064,998.630005 
	C1106.974487,1005.410217 1106.969360,1012.190369 1106.969360,1019.001404 
	C1109.362549,1019.001404 1111.225708,1019.001404 1113.340820,1019.001404 
	C1113.340820,1012.257568 1113.340820,1005.938538 1113.341431,998.656372 
M874.891418,979.501221 
	C874.891418,974.598328 874.891418,969.695435 874.891418,964.441040 
	C872.200073,964.567566 870.327271,964.655640 868.609558,964.736389 
	C868.609558,983.274475 868.609558,1001.154358 868.609558,1019.061584 
	C870.849426,1019.061584 872.748474,1019.061584 874.391785,1019.061584 
	C876.293274,1013.514221 872.318909,1007.104797 878.196838,1002.174744 
	C880.928223,1006.709778 883.704102,1010.651794 885.771362,1014.935791 
	C887.903870,1019.354980 890.943542,1020.245789 895.710999,1018.896301 
	C891.698364,1012.385132 887.988647,1006.124634 884.013733,1000.037231 
	C882.485291,997.696472 882.553040,996.029236 884.327087,993.881653 
	C887.643677,989.866821 890.681396,985.621643 893.977783,981.284729 
	C888.990173,979.807129 885.860779,980.988953 883.437561,985.079468 
	C881.221313,988.820557 878.323608,992.158020 874.891357,996.803406 
	C874.891357,990.370422 874.891357,985.433533 874.891418,979.501221 
M948.845154,1003.505005 
	C948.832214,1000.008545 948.954102,996.505371 948.781982,993.016785 
	C948.166870,980.552612 940.484436,976.627686 930.021484,983.345337 
	C929.872437,983.441040 929.479309,983.156555 928.768555,982.884094 
	C928.768555,976.965393 928.768555,970.893127 928.768555,964.899414 
	C926.600220,964.899414 924.873840,964.899414 923.199951,964.899414 
	C923.199951,983.194885 923.199951,1001.095947 923.199951,1019.095337 
	C925.271790,1019.095337 927.026489,1019.095337 928.903564,1019.095337 
	C928.979370,1017.648010 929.089172,1016.497070 929.091858,1015.345886 
	C929.108765,1008.186035 929.033752,1001.025391 929.126831,993.866699 
	C929.186157,989.309814 932.322815,985.884033 936.289185,985.864746 
	C941.349915,985.840149 942.153503,989.326721 942.243652,993.305420 
	C942.300232,995.801880 942.286987,998.300110 942.289246,1000.797546 
	C942.294800,1006.876648 942.291138,1012.955811 942.291138,1019.124878 
	C944.852417,1019.124878 946.615112,1019.124878 948.845032,1019.124878 
	C948.845032,1014.074158 948.845032,1009.287048 948.845154,1003.505005 
M1304.029297,980.150818 
	C1298.210449,981.523193 1294.189087,984.591980 1293.357788,992.135681 
	C1295.959717,991.378174 1299.149902,991.356262 1299.722656,990.120789 
	C1301.839478,985.556152 1305.348267,984.690918 1309.165771,986.277710 
	C1313.516357,988.086243 1312.154663,992.152954 1311.720703,995.914856 
	C1304.035034,995.794495 1296.718140,996.136597 1293.459106,1004.406799 
	C1291.569458,1009.202026 1292.944092,1015.124023 1296.465698,1017.708496 
	C1301.593872,1021.471924 1306.731079,1020.604736 1310.247437,1017.994751 
	C1314.132935,1018.705078 1316.744629,1019.182495 1318.758789,1019.550720 
	C1318.758789,1010.434753 1318.794678,1002.141968 1318.749756,993.849670 
	C1318.694214,983.604187 1315.110229,980.078918 1304.029297,980.150818 
M859.120300,1015.752197 
	C859.016724,1012.591675 858.906128,1009.431396 858.811096,1006.270630 
	C858.631287,1000.290588 858.959534,994.241455 858.147339,988.349121 
	C857.308350,982.263062 851.935486,979.326355 844.848694,980.076355 
	C838.353760,980.763733 834.072449,985.139404 833.973145,991.357605 
	C837.043152,991.962891 839.638489,992.120667 841.044250,988.263916 
	C841.467285,987.103394 843.585449,986.133057 845.070312,985.862854 
	C850.858276,984.809326 853.001526,988.068787 851.575073,995.785828 
	C844.047913,995.924194 836.088318,996.029358 833.363831,1005.137085 
	C831.992981,1009.719727 832.337524,1014.672424 836.724182,1017.845703 
	C841.672729,1021.425476 846.743164,1020.670837 851.657166,1016.901184 
	C852.220520,1017.566162 852.620239,1018.335449 853.253296,1018.734009 
	C856.075745,1020.511169 859.102600,1019.391602 859.120300,1015.752197 
M584.883972,988.411377 
	C587.243469,985.063477 590.732605,984.826660 593.755005,986.446960 
	C597.534363,988.473083 596.337341,992.271484 595.893372,995.835449 
	C587.829041,995.823914 580.049622,996.254456 577.387268,1005.338989 
	C576.035156,1009.952698 576.536438,1014.851562 580.968323,1017.941589 
	C586.150269,1021.554565 591.302124,1020.652161 594.585510,1017.753540 
	C598.361572,1018.577148 600.908508,1019.132690 603.485535,1019.694763 
	C603.249329,1014.944092 602.979065,1011.322937 602.909790,1007.697937 
	C602.798584,1001.881409 603.139343,996.038391 602.704102,990.250549 
	C602.177551,983.247925 597.433044,979.707764 589.932068,980.032349 
	C582.928589,980.335449 578.196289,984.787903 578.036377,992.757324 
	C580.604675,991.294067 582.538208,990.192505 584.883972,988.411377 
M1217.271973,1016.768921 
	C1217.180542,1007.944702 1217.455566,999.097168 1216.896240,990.302734 
	C1216.315918,981.177124 1208.778320,977.411621 1200.804443,981.768677 
	C1199.978394,982.220093 1199.195435,982.750122 1198.392456,983.243591 
	C1198.406982,982.837769 1198.421509,982.431946 1198.436035,982.026184 
	C1196.187378,981.536255 1193.938721,981.046326 1191.561035,980.528320 
	C1191.561035,993.989319 1191.561035,1006.539185 1191.561035,1018.996765 
	C1193.836914,1018.996765 1195.714722,1018.996765 1197.810913,1018.996765 
	C1197.810913,1010.085449 1197.694946,1001.596497 1197.859985,993.112976 
	C1197.942139,988.898987 1200.387207,986.285706 1204.629395,985.911499 
	C1209.385010,985.492004 1210.440308,988.891418 1210.841919,992.628540 
	C1211.018921,994.277039 1210.937500,995.955444 1210.939331,997.620239 
	C1210.947388,1004.731628 1210.942871,1011.843018 1210.942871,1020.393433 
	C1213.649048,1019.197449 1215.449219,1018.401855 1217.271973,1016.768921 
M816.869202,1019.797485 
	C818.561340,1019.122437 820.362427,1018.636047 821.923401,1017.734009 
	C825.417053,1015.715271 826.425903,1013.395142 822.028137,1010.742310 
	C818.254028,1014.443054 813.686890,1015.857727 808.893860,1013.330444 
	C804.621826,1011.077942 804.420044,1006.770386 804.915833,1001.867493 
	C811.915771,1001.867493 818.811768,1001.867493 826.220154,1001.867493 
	C825.876953,997.957275 825.866211,994.625183 825.246277,991.410583 
	C823.747437,983.639160 819.970947,980.281921 813.002197,980.049622 
	C805.903381,979.813049 800.673950,983.680603 799.079224,991.037231 
	C798.244080,994.889587 798.065857,998.950867 798.101074,1002.913208 
	C798.211853,1015.371765 803.537048,1020.317200 816.869202,1019.797485 
M632.921814,1000.500671 
	C632.956360,1002.327515 632.903442,1004.160950 633.041016,1005.980042 
	C633.564697,1012.906738 636.816833,1017.458252 642.463806,1019.289673 
	C649.238525,1021.486877 655.389160,1019.797852 660.223267,1014.159424 
	C659.241699,1013.046936 658.220215,1011.889282 657.095154,1010.614197 
	C652.856995,1014.333618 648.357849,1015.926514 643.568054,1013.274963 
	C639.386658,1010.960266 639.312256,1006.600647 639.325623,1001.739685 
	C646.567688,1001.739685 653.609314,1001.739685 661.088745,1001.739685 
	C660.698914,997.778503 660.584045,994.455872 660.009460,991.214783 
	C658.752869,984.127075 654.992249,980.584045 648.605774,980.089355 
	C641.578613,979.545044 636.155212,982.953735 634.193726,989.728638 
	C633.286621,992.861816 633.317078,996.266418 632.921814,1000.500671 
M1368.440186,1013.951599 
	C1372.218384,1019.427917 1377.618286,1021.014954 1383.769653,1019.658875 
	C1389.945068,1018.297485 1393.749756,1013.841980 1394.354980,1007.804932 
	C1394.941528,1001.954407 1394.881592,995.810547 1393.724121,990.074280 
	C1392.411255,983.568054 1386.515747,979.956482 1379.958008,980.026489 
	C1373.678833,980.093506 1368.346924,983.763672 1366.567871,990.034424 
	C1364.341797,997.881348 1364.145630,1005.775269 1368.440186,1013.951599 
M1233.343018,1018.422607 
	C1242.616455,1022.094116 1251.557251,1019.174622 1253.522949,1010.449524 
	C1255.001465,1003.887268 1255.191284,996.409973 1253.595093,989.920471 
	C1250.955811,979.189392 1237.068604,976.707458 1229.592407,984.536438 
	C1223.795532,990.606873 1222.728882,1013.030762 1233.343018,1018.422607 
M1007.080688,1009.294861 
	C1007.009827,1002.888977 1007.804138,996.320007 1006.635132,990.121216 
	C1005.358582,983.352905 999.239075,979.790955 992.448730,980.031738 
	C986.080017,980.257507 980.523315,984.347046 979.281067,990.928406 
	C978.342163,995.902649 978.087952,1001.199951 978.666382,1006.222412 
	C979.594543,1014.281616 984.435486,1019.148438 990.921082,1019.948547 
	C998.307434,1020.859924 1003.178223,1017.851196 1007.080688,1009.294861 
M1162.470947,991.996704 
	C1163.755371,987.872864 1166.261475,985.244446 1170.868286,985.974182 
	C1175.613281,986.725830 1175.277832,990.724976 1175.511353,994.161316 
	C1175.668823,996.480164 1175.553955,998.817749 1175.554810,1001.146912 
	C1175.556763,1007.081970 1175.555420,1013.017090 1175.555420,1018.961304 
	C1178.050781,1018.961304 1179.915039,1018.961304 1181.868042,1018.961304 
	C1181.868042,1009.569702 1182.221313,1000.574463 1181.777466,991.618774 
	C1181.239380,980.761780 1173.022339,976.841858 1164.116699,982.795166 
	C1163.597778,983.142090 1163.023804,983.406677 1162.475586,983.709656 
	C1162.548218,983.238647 1162.620972,982.767700 1162.693604,982.296692 
	C1160.674194,981.736633 1158.654663,981.176514 1156.358398,980.539612 
	C1156.358398,994.014038 1156.358398,1006.546326 1156.358398,1019.065796 
	C1158.464233,1019.065796 1160.214233,1019.065796 1162.423462,1019.065796 
	C1162.423462,1010.144836 1162.423462,1001.528320 1162.470947,991.996704 
M1033.780884,1012.031311 
	C1027.159546,1016.502808 1023.107300,1014.626465 1022.495422,1006.754089 
	C1022.341125,1004.768799 1022.401184,1002.765381 1022.398071,1000.770203 
	C1022.387939,994.305603 1022.394287,987.841003 1022.394287,981.233154 
	C1020.085083,981.233154 1018.216370,981.233154 1016.160278,981.233154 
	C1016.160278,990.704529 1015.784973,999.847839 1016.270935,1008.945129 
	C1016.714600,1017.251282 1022.346985,1021.490234 1029.621704,1019.715637 
	C1031.671265,1019.215637 1033.559814,1018.055359 1035.522217,1017.197937 
	C1035.441162,1017.603455 1035.360107,1018.008911 1035.279053,1018.414368 
	C1037.329834,1018.800110 1039.380615,1019.185852 1041.714722,1019.624878 
	C1041.714722,1006.298462 1041.714722,993.747559 1041.714722,981.098633 
	C1039.645386,981.098633 1037.865356,981.098633 1036.174927,981.098633 
	C1035.954590,981.616211 1035.715210,981.917908 1035.713135,982.221375 
	C1035.660522,989.704163 1035.726196,997.189392 1035.544556,1004.668701 
	C1035.489990,1006.909424 1034.758545,1009.133667 1033.780884,1012.031311 
M1428.610962,988.352417 
	C1425.380737,979.307251 1420.262939,977.823792 1411.466675,982.344666 
	C1408.144287,981.569275 1405.901978,981.046021 1403.429932,980.469055 
	C1403.429932,993.915894 1403.429932,1006.458801 1403.429932,1019.040894 
	C1405.655396,1019.040894 1407.543823,1019.040894 1409.712524,1019.040894 
	C1409.712524,1010.195496 1409.633301,1001.723267 1409.745850,993.253479 
	C1409.802368,989.009949 1412.158936,986.372070 1416.380493,985.925537 
	C1421.073486,985.429077 1422.399780,988.637024 1422.646973,992.490967 
	C1422.859619,995.807434 1422.844971,999.140686 1422.864136,1002.466919 
	C1422.895386,1007.928711 1422.872681,1013.390808 1422.872681,1019.007080 
	C1425.137451,1019.007080 1426.994141,1019.007080 1428.799805,1019.007080 
	C1428.799805,1008.798584 1428.799805,998.996033 1428.610962,988.352417 
M674.696350,1003.511047 
	C674.699158,1000.019653 674.550049,996.519714 674.743774,993.039001 
	C674.978149,988.827820 677.307312,986.239868 681.577454,985.900818 
	C685.973633,985.551880 687.274780,988.536072 687.641968,992.187561 
	C687.824524,994.002563 687.862000,995.837585 687.868347,997.663940 
	C687.892761,1004.760803 687.878296,1011.857910 687.878296,1019.134644 
	C690.175293,1019.134644 691.925720,1019.134644 693.908264,1019.134644 
	C693.908264,1009.249817 694.330322,999.615479 693.779419,990.037109 
	C693.308899,981.855957 686.376465,977.881653 679.263611,980.977234 
	C677.915833,981.563782 676.680603,982.409058 675.393433,983.134949 
	C675.454773,982.760071 675.516052,982.385132 675.577393,982.010254 
	C673.217834,981.542542 670.858276,981.074829 668.322998,980.572327 
	C668.322998,993.997070 668.322998,1006.420959 668.322998,1019.128784 
	C670.436157,1019.128784 672.332275,1019.128784 674.696045,1019.128784 
	C674.696045,1014.069824 674.696045,1009.286621 674.696350,1003.511047 
M1442.160645,1007.889099 
	C1440.611328,1007.889099 1439.062012,1007.889099 1437.385620,1007.889099 
	C1439.047241,1017.964783 1447.640015,1022.588745 1456.646851,1019.060547 
	C1460.761475,1017.448608 1463.108521,1014.439758 1463.575806,1010.115417 
	C1464.028076,1005.930359 1462.360474,1002.561646 1458.686035,1000.497192 
	C1455.512207,998.713928 1451.922485,997.597168 1448.953125,995.551880 
	C1447.194214,994.340393 1445.649536,992.023193 1445.246826,989.961304 
	C1445.034424,988.874634 1447.543701,986.079895 1448.711182,986.143127 
	C1451.193970,986.277344 1454.810791,987.101807 1455.789062,988.855774 
	C1457.784790,992.434143 1459.920898,992.174866 1462.859131,991.328369 
	C1462.418335,984.602173 1458.668457,980.712097 1452.294067,980.086853 
	C1445.885620,979.458313 1440.413086,982.721863 1438.932861,988.055115 
	C1437.390991,993.610107 1439.544800,997.655701 1445.753296,1000.779297 
	C1448.568604,1002.195740 1451.720337,1003.165405 1454.134155,1005.076904 
	C1455.642822,1006.271545 1457.105103,1009.128845 1456.672607,1010.718994 
	C1456.241333,1012.304199 1453.564087,1013.902710 1451.616577,1014.328308 
	C1446.714844,1015.399353 1444.786865,1011.610046 1442.160645,1007.889099 
M1262.934448,991.748169 
	C1265.345093,999.867798 1267.652344,1008.021057 1270.268555,1016.073914 
	C1270.701416,1017.406555 1272.520996,1019.197205 1273.632812,1019.151367 
	C1274.800781,1019.103271 1276.474854,1017.291077 1276.915283,1015.923584 
	C1279.714844,1007.231873 1282.250244,998.454651 1284.836670,989.695068 
	C1285.658325,986.911987 1286.370605,984.096619 1287.216431,980.989624 
	C1284.743042,980.989624 1282.961670,980.989624 1280.923218,980.989624 
	C1278.591919,989.995117 1276.286133,998.901428 1273.627808,1009.169861 
	C1271.286987,1000.326477 1269.017700,993.015137 1267.496704,985.551270 
	C1266.528931,980.801392 1264.242554,980.011597 1259.823364,981.480286 
	C1260.803833,984.684998 1261.765137,987.826721 1262.934448,991.748169 
M1330.168945,995.535889 
	C1330.172241,1000.187927 1329.920532,1004.859497 1330.275635,1009.484497 
	C1330.484131,1012.199768 1330.866089,1015.730347 1332.606934,1017.280273 
	C1334.588745,1019.044861 1338.148804,1019.250000 1341.079956,1019.525757 
	C1341.567871,1019.571594 1342.347046,1016.522766 1342.991699,1014.903992 
	C1342.454468,1015.038635 1341.917358,1015.173218 1341.380127,1015.307861 
	C1339.886353,1013.792786 1337.188354,1012.343323 1337.101562,1010.751526 
	C1336.661499,1002.675842 1336.898926,994.563293 1336.898926,986.256775 
	C1338.879028,986.059143 1340.465942,985.900757 1342.309814,985.716736 
	C1342.309814,984.089172 1342.309814,982.672913 1342.309814,981.071960 
	C1340.568726,980.819153 1338.967041,980.586670 1337.123413,980.319031 
	C1336.898682,977.321716 1336.682739,974.440491 1336.468628,971.584229 
	C1334.222778,971.584229 1332.464478,971.584229 1330.437012,971.584229 
	C1330.249756,974.624207 1330.079712,977.385742 1329.905640,980.211487 
	C1327.990601,980.575989 1326.272583,980.903015 1324.251953,981.287598 
	C1324.408569,982.962585 1324.538818,984.355530 1324.662354,985.676208 
	C1326.679565,985.928955 1328.265015,986.127563 1330.169067,986.366089 
	C1330.169067,989.282593 1330.169067,991.915833 1330.168945,995.535889 
M903.116821,994.551147 
	C903.119690,999.532471 902.877380,1004.530884 903.223022,1009.488342 
	C903.411987,1012.199097 903.802368,1015.731079 905.539673,1017.278137 
	C907.515808,1019.037842 911.073914,1019.233276 914.000122,1019.502258 
	C914.481384,1019.546570 915.248962,1016.475891 915.884216,1014.844788 
	C915.307617,1014.982056 914.731018,1015.119324 914.154419,1015.256592 
	C912.715942,1013.730530 910.118469,1012.265442 910.034363,1010.668030 
	C909.609558,1002.602417 909.839050,994.502380 909.839050,986.261414 
	C911.879517,986.058411 913.463318,985.900818 915.242554,985.723816 
	C915.242554,984.027588 915.242554,982.615112 915.242554,981.094299 
	C913.419495,980.800171 911.824158,980.542786 910.030884,980.253418 
	C909.841125,977.363586 909.659973,974.604675 909.464294,971.624756 
	C907.305420,971.624756 905.432861,971.624756 903.351013,971.624756 
	C903.179871,974.705383 903.026794,977.459473 902.866516,980.344360 
	C900.976196,980.597107 899.365845,980.812439 897.286255,981.090515 
	C897.365601,982.733521 897.438904,984.251038 897.507568,985.672607 
	C899.659607,985.932129 901.243286,986.123047 903.116882,986.348999 
	C903.116882,988.969666 903.116882,991.271545 903.116821,994.551147 
M620.903259,989.720093 
	C619.955017,984.946838 623.947205,986.299805 626.454651,985.619324 
	C626.454651,984.060486 626.454651,982.652527 626.454651,981.193726 
	C624.561584,980.840637 622.849854,980.521301 621.070740,980.189453 
	C620.935486,977.132263 620.814270,974.390503 620.691040,971.605103 
	C618.398804,971.605103 616.650330,971.605103 614.620056,971.605103 
	C614.430542,974.629639 614.257690,977.387451 614.076233,980.281738 
	C612.241150,980.564575 610.646179,980.810425 608.598694,981.125977 
	C608.673035,982.739380 608.743164,984.260437 608.807983,985.666382 
	C610.940063,985.961182 612.521484,986.179871 614.365601,986.434875 
	C614.365601,994.023926 614.181274,1001.320740 614.456726,1008.600159 
	C614.566162,1011.490540 614.849060,1015.143311 616.595825,1016.988159 
	C618.373901,1018.866028 622.017456,1019.224670 624.924561,1019.567322 
	C625.473450,1019.632080 626.398865,1016.502258 627.579712,1013.901184 
	C621.584351,1015.017273 620.812317,1012.311890 620.877563,1008.603516 
	C620.982666,1002.627258 620.903870,996.647766 620.903259,989.720093 
M705.380920,978.365967 
	C703.667908,979.627197 701.954895,980.888428 699.629211,982.600830 
	C699.679138,983.058228 699.829346,984.433899 699.965149,985.677612 
	C702.021545,985.965210 703.602173,986.186340 705.400391,986.437866 
	C705.400391,994.083374 705.211060,1001.397034 705.494202,1008.692383 
	C705.606262,1011.580444 705.924377,1015.244873 707.687500,1017.066101 
	C709.488647,1018.926514 713.147095,1019.217773 716.066956,1019.559631 
	C716.605347,1019.622681 717.498840,1016.653076 717.717163,1016.183350 
	C715.186096,1013.857361 712.309448,1012.468872 712.223877,1010.925415 
	C711.767273,1002.694214 712.008728,994.424377 712.008728,986.256165 
	C714.194336,985.992371 715.794189,985.799255 717.737122,985.564758 
	C717.618347,983.883179 717.520630,982.499512 717.428894,981.200562 
	C715.389771,980.915710 713.799744,980.693542 712.107910,980.457214 
	C711.965027,977.409912 711.835266,974.642822 711.696777,971.690430 
	C709.521240,971.690430 707.657349,971.690430 705.393066,971.690430 
	C705.393066,973.862427 705.393066,975.664001 705.380920,978.365967 
M964.463501,994.749146 
	C964.052673,988.091187 968.248413,986.299438 974.041748,986.392395 
	C973.941589,984.141174 973.862915,982.373047 973.731934,979.429077 
	C970.305786,980.556519 967.513550,981.475403 965.565918,982.116333 
	C962.912415,981.554016 960.783997,981.103027 958.292114,980.574951 
	C958.292114,993.857483 958.292114,1006.391235 958.292114,1018.970581 
	C960.440613,1018.970581 962.308533,1018.970581 964.462463,1018.970581 
	C964.462463,1010.944153 964.462463,1003.319153 964.463501,994.749146 
M789.177246,980.268433 
	C787.538330,981.245972 785.899414,982.223511 784.260498,983.201050 
	C784.333252,982.734924 784.406067,982.268738 784.478821,981.802612 
	C782.483093,981.434143 780.487366,981.065735 778.191772,980.641968 
	C778.191772,993.920349 778.191772,1006.458618 778.191772,1019.057129 
	C780.286682,1019.057129 782.034668,1019.057129 784.051819,1019.057129 
	C784.051819,1011.760376 784.051636,1004.778442 784.051880,997.796448 
	C784.052185,988.387512 784.433716,987.910767 793.634216,985.988037 
	C793.566345,983.293579 795.351929,979.553345 789.177246,980.268433 
M1352.792847,980.718872 
	C1351.937256,981.961426 1350.377808,983.183350 1350.340698,984.449890 
	C1350.111694,992.270874 1350.225342,1000.101868 1350.225220,1007.929565 
	C1350.225098,1011.674500 1350.225220,1015.419434 1350.225220,1019.016479 
	C1352.910400,1019.016479 1354.792114,1019.016479 1356.881470,1019.016479 
	C1356.881470,1006.926575 1356.812134,995.275085 1356.934204,983.625610 
	C1356.961914,980.982300 1355.735352,980.507202 1352.792847,980.718872 
M1144.405273,980.918579 
	C1142.989136,981.009399 1141.573120,981.100220 1140.184570,981.189209 
	C1140.184570,994.019409 1140.184570,1006.401978 1140.184570,1018.913757 
	C1142.197388,1018.913757 1143.919678,1018.913757 1146.076416,1018.913757 
	C1146.076416,1010.186829 1146.153687,1001.750916 1146.043213,993.317505 
	C1145.989746,989.237854 1145.583618,985.162781 1144.405273,980.918579 
M1139.830078,969.046875 
	C1140.624512,970.720886 1141.217773,972.560913 1142.361938,973.946106 
	C1142.630859,974.271667 1145.458252,973.376465 1145.862793,972.480286 
	C1146.416992,971.253357 1146.073608,968.285278 1145.602173,968.170532 
	C1143.886597,967.752869 1141.957520,968.212646 1139.830078,969.046875 
M1357.041504,971.340088 
	C1355.949219,969.848755 1355.020996,968.160278 1353.642090,967.013550 
	C1353.323486,966.748535 1350.740967,968.148865 1350.489990,969.117249 
	C1350.150391,970.427185 1351.056152,972.059875 1351.427612,973.554138 
	C1353.240234,973.086792 1355.052979,972.619385 1357.041504,971.340088 
z"/>
<path fill="#D69824" opacity="1.000000" stroke="none" 
	d="
M1247.998779,466.349121 
	C1254.127808,466.349274 1259.757080,466.349274 1265.665283,466.349274 
	C1265.665283,487.278198 1265.665283,507.697876 1265.665283,528.696838 
	C1225.233032,528.696838 1184.840088,528.696838 1144.126221,528.696838 
	C1144.126221,634.189087 1144.126221,739.104004 1144.126221,844.398315 
	C1209.054688,844.398315 1273.963379,844.398315 1339.609375,844.398315 
	C1339.609375,718.613525 1339.609375,592.759155 1339.609375,466.627930 
	C1362.603394,466.627930 1384.861816,466.627930 1407.640625,466.627930 
	C1407.640625,592.528076 1407.640625,718.267334 1407.640625,844.703735 
	C1426.513184,844.703735 1444.884155,844.703735 1463.500244,844.703735 
	C1463.500244,853.174622 1463.500244,860.950867 1463.500244,869.150269 
	C1155.221069,869.150269 847.020447,869.150269 538.529785,869.150269 
	C538.529785,861.170166 538.529785,853.412842 538.529785,844.933228 
	C556.917969,844.933228 575.278564,844.933228 594.132568,844.933228 
	C594.132568,718.472229 594.132568,592.728699 594.132568,466.729004 
	C595.899536,466.574371 597.186707,466.363037 598.473816,466.363281 
	C650.139160,466.372955 701.805359,466.226349 753.469421,466.498871 
	C781.096863,466.644623 808.381470,469.648834 834.005859,480.986206 
	C870.357117,497.069733 888.856873,526.124451 892.942871,564.774231 
	C895.063049,584.828308 892.142883,604.377563 882.009827,622.255066 
	C872.946472,638.245483 858.830688,648.562256 842.605347,656.360291 
	C840.655396,657.297424 838.682434,658.186584 836.737793,659.134216 
	C836.478271,659.260742 836.323486,659.601990 835.794678,660.231140 
	C877.684875,671.331482 907.603638,695.065613 914.432739,739.711853 
	C920.907471,782.041321 908.749390,818.153442 871.630310,844.445312 
	C940.090027,844.445312 1007.454712,844.445312 1075.290039,844.445312 
	C1075.290039,739.460205 1075.290039,634.440491 1075.290039,528.914185 
	C1034.816772,528.914185 994.402954,528.914185 953.646545,528.914185 
	C953.515320,526.987976 953.332520,525.539673 953.330811,524.091064 
	C953.310913,506.758057 953.472107,489.422760 953.213623,472.093597 
	C953.145752,467.540405 954.344971,466.237396 959.004517,466.244141 
	C1055.169312,466.383209 1151.334229,466.348877 1247.998779,466.349121 
M684.500000,696.648132 
	C677.230530,696.648132 669.960999,696.648132 662.477539,696.648132 
	C662.477539,733.566162 662.477539,769.794922 662.477539,806.378540 
	C664.169556,806.503113 665.617676,806.702087 667.065857,806.702820 
	C701.383057,806.719910 735.701111,806.855774 770.017029,806.648560 
	C784.343567,806.562073 798.571289,805.230042 812.411621,800.967712 
	C829.767395,795.622681 841.443848,785.005981 844.624512,766.602783 
	C845.638611,760.735413 846.030823,754.690430 846.015747,748.728455 
	C845.968933,730.227417 837.548889,716.608582 821.204407,707.958679 
	C807.060852,700.473572 791.639465,697.522827 775.947937,697.182922 
	C745.808899,696.530029 715.650391,696.775208 684.500000,696.648132 
M681.500916,633.782288 
	C703.486816,633.782104 725.492310,634.340576 747.451355,633.572571 
	C760.661011,633.110596 774.079773,631.759888 786.900085,628.696899 
	C804.673340,624.450623 817.923584,613.862732 821.340027,594.695251 
	C822.575806,587.762329 822.561096,580.393860 821.816040,573.362061 
	C819.899658,555.274292 810.522400,542.510864 793.174622,535.944153 
	C778.745178,530.482056 763.672852,529.382507 748.506226,529.274109 
	C721.524902,529.081299 694.541260,529.214111 667.558594,529.228760 
	C665.948364,529.229675 664.338318,529.391296 662.638916,529.482910 
	C662.638916,564.407410 662.638916,598.914917 662.638916,633.782166 
	C668.881409,633.782166 674.691650,633.782166 681.500916,633.782288 
z"/>
<path fill="#D69826" opacity="1.000000" stroke="none" 
	d="
M1061.304321,291.855591 
	C1095.902832,296.190948 1129.065308,304.562561 1161.330200,316.451782 
	C1196.462646,329.397583 1229.517944,346.448181 1260.518677,367.460419 
	C1261.758667,368.300903 1262.982788,369.166779 1264.179565,370.067078 
	C1264.383423,370.220398 1264.410522,370.608673 1264.710693,371.380615 
	C1253.246460,371.380615 1241.978149,371.445251 1230.712769,371.295410 
	C1229.368896,371.277527 1227.969238,370.206818 1226.715332,369.430389 
	C1181.828857,341.635040 1133.548340,322.470490 1081.669922,312.540466 
	C1042.344727,305.013245 1002.739990,303.006744 962.829895,306.633911 
	C895.337769,312.767822 832.890869,333.821625 775.321350,369.499420 
	C774.070068,370.274902 772.645081,371.279999 771.289734,371.297394 
	C760.026855,371.442078 748.761353,371.379425 737.063110,370.196960 
	C746.992615,363.938934 756.762817,357.409607 766.878540,351.468567 
	C817.519897,321.726654 871.921204,302.329224 929.929810,293.296539 
	C973.466858,286.517273 1017.143860,285.896729 1061.304321,291.855591 
z"/>
<path fill="#D69826" opacity="1.000000" stroke="none" 
	d="
M1233.501831,1129.525391 
	C1244.074097,1129.525391 1254.200439,1129.525391 1264.642700,1129.525391 
	C1248.242188,1149.789307 1152.714233,1191.524170 1094.479492,1203.617432 
	C1032.370850,1216.515015 970.110840,1216.477783 907.986023,1203.724976 
	C846.114685,1191.024292 789.195312,1166.591309 737.441223,1129.524536 
	C744.176392,1129.524536 750.946716,1129.960205 757.638489,1129.421509 
	C767.515442,1128.626343 775.724487,1131.583984 784.259094,1136.689209 
	C831.182068,1164.757568 881.846680,1182.714233 935.918945,1191.104004 
	C972.342346,1196.755493 1008.887634,1197.747681 1045.487427,1193.846924 
	C1110.024902,1186.968384 1170.001099,1166.493774 1225.310547,1132.431396 
	C1227.614868,1131.012207 1230.461792,1130.473999 1233.501831,1129.525391 
z"/>
<path fill="#D79B2B" opacity="1.000000" stroke="none" 
	d="
M1078.022339,1001.000244 
	C1078.016357,1007.831848 1078.092896,1014.164917 1077.979370,1020.494690 
	C1077.881226,1025.974243 1076.197266,1030.731323 1070.763062,1033.155518 
	C1065.100708,1035.681396 1059.674438,1034.643066 1054.588623,1031.477295 
	C1051.379150,1029.479492 1053.408081,1027.725830 1055.116455,1025.707153 
	C1059.339233,1028.498657 1064.059814,1031.054565 1068.406128,1027.471802 
	C1070.640015,1025.630371 1071.137695,1021.683044 1072.416992,1018.694336 
	C1070.881958,1018.078674 1070.515747,1017.792480 1070.341431,1017.881653 
	C1058.225098,1024.078247 1051.272339,1016.174744 1050.465088,1006.298157 
	C1050.049194,1001.209961 1050.145752,995.922607 1051.057129,990.915649 
	C1053.037476,980.034302 1062.354614,976.775940 1070.379761,982.873474 
	C1072.982788,981.908630 1075.077881,981.132019 1078.022339,980.040527 
	C1078.022339,987.583679 1078.022339,994.042053 1078.022339,1001.000244 
M1056.635620,1000.479858 
	C1056.876587,1003.276489 1056.798218,1006.148132 1057.432617,1008.852478 
	C1058.417236,1013.049072 1061.493042,1014.767517 1065.676758,1014.196838 
	C1069.700073,1013.647949 1071.786133,1011.193909 1071.805420,1007.097595 
	C1071.827271,1002.459167 1071.785522,997.820435 1071.819214,993.182190 
	C1071.849121,989.069458 1069.785645,986.588867 1065.837036,985.937439 
	C1061.657593,985.248047 1058.575317,987.042542 1057.513550,991.174500 
	C1056.824097,993.857849 1056.901245,996.738281 1056.635620,1000.479858 
z"/>
<path fill="#D89D31" opacity="1.000000" stroke="none" 
	d="
M568.857788,975.356079 
	C569.419495,979.288025 570.426270,982.925354 570.110718,986.444153 
	C569.416077,994.191650 564.419250,998.562439 556.548645,998.948853 
	C552.926758,999.126648 549.288940,998.979065 545.093933,998.979065 
	C545.093933,1005.862488 545.093933,1012.397339 545.093933,1019.172058 
	C542.614197,1019.172058 540.702454,1019.172058 538.524780,1019.172058 
	C538.524780,1001.909485 538.524780,984.905334 538.524780,967.931824 
	C545.714539,967.931824 552.740723,967.181580 559.478577,968.249695 
	C562.826355,968.780457 565.644958,972.649048 568.857788,975.356079 
M556.672913,973.262878 
	C552.914001,973.262878 549.155090,973.262878 545.289734,973.262878 
	C545.289734,980.030762 545.289734,986.415344 545.289734,993.235107 
	C548.198242,993.235107 550.818481,993.258606 553.438232,993.230530 
	C560.011597,993.160095 562.465271,991.429993 563.629272,986.088501 
	C564.838745,980.538147 562.618713,975.990479 556.672913,973.262878 
z"/>
<path fill="#D79B2B" opacity="1.000000" stroke="none" 
	d="
M768.960327,1009.708801 
	C764.945923,1020.822632 757.401855,1023.136169 749.487366,1017.114441 
	C746.896973,1018.203735 744.879822,1019.051941 742.179688,1020.187378 
	C742.179688,1001.105164 742.179688,983.217712 742.179688,964.917725 
	C743.987488,964.917725 745.838806,964.917725 748.087891,964.917725 
	C748.087891,971.168335 748.087891,977.228516 748.087891,983.514038 
	C759.649902,976.623657 767.795837,980.391479 769.384338,993.436829 
	C770.017334,998.634766 769.190796,1004.010498 768.960327,1009.708801 
M754.686890,1014.264709 
	C759.013855,1014.637573 762.185425,1012.664124 762.609253,1008.487610 
	C763.174744,1002.915466 763.196167,997.198181 762.618225,991.629639 
	C762.188293,987.487183 759.004578,985.363220 754.685486,985.884827 
	C750.480347,986.392639 748.146118,988.859802 748.081055,993.176086 
	C748.015930,997.497620 748.162781,1001.823547 748.038513,1006.142395 
	C747.916138,1010.394897 749.673157,1013.120117 754.686890,1014.264709 
z"/>
<path fill="#D89D31" opacity="1.000000" stroke="none" 
	d="
M1113.341064,999.137939 
	C1113.340820,1005.938538 1113.340820,1012.257568 1113.340820,1019.001404 
	C1111.225708,1019.001404 1109.362549,1019.001404 1106.969360,1019.001404 
	C1106.969360,1012.190369 1106.974487,1005.410217 1106.966064,998.630005 
	C1106.963623,996.630737 1107.057983,994.618774 1106.870605,992.635010 
	C1106.515503,988.874512 1105.415649,985.507690 1100.665771,985.916931 
	C1096.393799,986.284973 1094.006104,988.975220 1093.916870,993.149475 
	C1093.735596,1001.637146 1093.862549,1010.131348 1093.862549,1019.026367 
	C1091.738892,1019.026367 1089.846313,1019.026367 1087.586548,1019.026367 
	C1087.586548,1001.159302 1087.586548,983.249695 1087.586548,964.905151 
	C1089.336060,964.905151 1091.221802,964.905151 1093.613770,964.905151 
	C1093.613770,970.748108 1093.613770,976.661621 1093.613770,982.431091 
	C1094.418213,982.666382 1094.817017,982.928589 1095.017944,982.820984 
	C1106.022583,976.933167 1112.540527,980.608459 1113.264771,993.158875 
	C1113.370361,994.986755 1113.319702,996.823669 1113.341064,999.137939 
z"/>
<path fill="#D89D31" opacity="1.000000" stroke="none" 
	d="
M874.891357,979.998901 
	C874.891357,985.433533 874.891357,990.370422 874.891357,996.803406 
	C878.323608,992.158020 881.221313,988.820557 883.437561,985.079468 
	C885.860779,980.988953 888.990173,979.807129 893.977783,981.284729 
	C890.681396,985.621643 887.643677,989.866821 884.327087,993.881653 
	C882.553040,996.029236 882.485291,997.696472 884.013733,1000.037231 
	C887.988647,1006.124634 891.698364,1012.385132 895.710999,1018.896301 
	C890.943542,1020.245789 887.903870,1019.354980 885.771362,1014.935791 
	C883.704102,1010.651794 880.928223,1006.709778 878.196838,1002.174744 
	C872.318909,1007.104797 876.293274,1013.514221 874.391785,1019.061584 
	C872.748474,1019.061584 870.849426,1019.061584 868.609558,1019.061584 
	C868.609558,1001.154358 868.609558,983.274475 868.609558,964.736389 
	C870.327271,964.655640 872.200073,964.567566 874.891418,964.441040 
	C874.891418,969.695435 874.891418,974.598328 874.891357,979.998901 
z"/>
<path fill="#D79B2B" opacity="1.000000" stroke="none" 
	d="
M948.845093,1004.002441 
	C948.845032,1009.287048 948.845032,1014.074158 948.845032,1019.124878 
	C946.615112,1019.124878 944.852417,1019.124878 942.291138,1019.124878 
	C942.291138,1012.955811 942.294800,1006.876648 942.289246,1000.797546 
	C942.286987,998.300110 942.300232,995.801880 942.243652,993.305420 
	C942.153503,989.326721 941.349915,985.840149 936.289185,985.864746 
	C932.322815,985.884033 929.186157,989.309814 929.126831,993.866699 
	C929.033752,1001.025391 929.108765,1008.186035 929.091858,1015.345886 
	C929.089172,1016.497070 928.979370,1017.648010 928.903564,1019.095337 
	C927.026489,1019.095337 925.271790,1019.095337 923.199951,1019.095337 
	C923.199951,1001.095947 923.199951,983.194885 923.199951,964.899414 
	C924.873840,964.899414 926.600220,964.899414 928.768555,964.899414 
	C928.768555,970.893127 928.768555,976.965393 928.768555,982.884094 
	C929.479309,983.156555 929.872437,983.441040 930.021484,983.345337 
	C940.484436,976.627686 948.166870,980.552612 948.781982,993.016785 
	C948.954102,996.505371 948.832214,1000.008545 948.845093,1004.002441 
z"/>
<path fill="#D89D2F" opacity="1.000000" stroke="none" 
	d="
M1304.446533,980.110352 
	C1315.110229,980.078918 1318.694214,983.604187 1318.749756,993.849670 
	C1318.794678,1002.141968 1318.758789,1010.434753 1318.758789,1019.550720 
	C1316.744629,1019.182495 1314.132935,1018.705078 1310.247437,1017.994751 
	C1306.731079,1020.604736 1301.593872,1021.471924 1296.465698,1017.708496 
	C1292.944092,1015.124023 1291.569458,1009.202026 1293.459106,1004.406799 
	C1296.718140,996.136597 1304.035034,995.794495 1311.720703,995.914856 
	C1312.154663,992.152954 1313.516357,988.086243 1309.165771,986.277710 
	C1305.348267,984.690918 1301.839478,985.556152 1299.722656,990.120789 
	C1299.149902,991.356262 1295.959717,991.378174 1293.357788,992.135681 
	C1294.189087,984.591980 1298.210449,981.523193 1304.446533,980.110352 
M1312.178467,1008.066833 
	C1312.178467,1005.803528 1312.178467,1003.540222 1312.178467,1000.940674 
	C1309.875488,1000.940674 1308.091797,1000.769348 1306.352783,1000.975281 
	C1302.335449,1001.450867 1299.145630,1003.483459 1299.295654,1007.751160 
	C1299.369873,1009.858398 1301.150635,1013.174438 1302.853516,1013.701660 
	C1306.862427,1014.943054 1310.719360,1013.774353 1312.178467,1008.066833 
z"/>
<path fill="#D89D2F" opacity="1.000000" stroke="none" 
	d="
M859.210571,1016.165649 
	C859.102600,1019.391602 856.075745,1020.511169 853.253296,1018.734009 
	C852.620239,1018.335449 852.220520,1017.566162 851.657166,1016.901184 
	C846.743164,1020.670837 841.672729,1021.425476 836.724182,1017.845703 
	C832.337524,1014.672424 831.992981,1009.719727 833.363831,1005.137085 
	C836.088318,996.029358 844.047913,995.924194 851.575073,995.785828 
	C853.001526,988.068787 850.858276,984.809326 845.070312,985.862854 
	C843.585449,986.133057 841.467285,987.103394 841.044250,988.263916 
	C839.638489,992.120667 837.043152,991.962891 833.973145,991.357605 
	C834.072449,985.139404 838.353760,980.763733 844.848694,980.076355 
	C851.935486,979.326355 857.308350,982.263062 858.147339,988.349121 
	C858.959534,994.241455 858.631287,1000.290588 858.811096,1006.270630 
	C858.906128,1009.431396 859.016724,1012.591675 859.210571,1016.165649 
M852.063110,1009.826355 
	C852.063110,1006.926147 852.063110,1004.025940 852.063110,1000.840637 
	C850.242493,1000.840637 848.949646,1000.798035 847.660400,1000.848511 
	C843.721375,1001.002808 840.133362,1002.329285 839.520630,1006.526245 
	C839.201599,1008.711426 840.185425,1012.341858 841.787170,1013.297546 
	C845.393738,1015.449524 849.077759,1013.991577 852.063110,1009.826355 
z"/>
<path fill="#D89D2F" opacity="1.000000" stroke="none" 
	d="
M584.677856,988.751099 
	C582.538208,990.192505 580.604675,991.294067 578.036377,992.757324 
	C578.196289,984.787903 582.928589,980.335449 589.932068,980.032349 
	C597.433044,979.707764 602.177551,983.247925 602.704102,990.250549 
	C603.139343,996.038391 602.798584,1001.881409 602.909790,1007.697937 
	C602.979065,1011.322937 603.249329,1014.944092 603.485535,1019.694763 
	C600.908508,1019.132690 598.361572,1018.577148 594.585510,1017.753540 
	C591.302124,1020.652161 586.150269,1021.554565 580.968323,1017.941589 
	C576.536438,1014.851562 576.035156,1009.952698 577.387268,1005.338989 
	C580.049622,996.254456 587.829041,995.823914 595.893372,995.835449 
	C596.337341,992.271484 597.534363,988.473083 593.755005,986.446960 
	C590.732605,984.826660 587.243469,985.063477 584.677856,988.751099 
M586.946655,1013.973572 
	C595.482788,1014.224304 597.869324,1010.715515 595.563660,1000.866882 
	C591.184082,1000.803162 586.506226,1000.195251 584.031433,1005.126831 
	C582.411194,1008.355347 582.749695,1011.550293 586.946655,1013.973572 
z"/>
<path fill="#D89D2F" opacity="1.000000" stroke="none" 
	d="
M1217.260620,1017.187622 
	C1215.449219,1018.401855 1213.649048,1019.197449 1210.942871,1020.393433 
	C1210.942871,1011.843018 1210.947388,1004.731628 1210.939331,997.620239 
	C1210.937500,995.955444 1211.018921,994.277039 1210.841919,992.628540 
	C1210.440308,988.891418 1209.385010,985.492004 1204.629395,985.911499 
	C1200.387207,986.285706 1197.942139,988.898987 1197.859985,993.112976 
	C1197.694946,1001.596497 1197.810913,1010.085449 1197.810913,1018.996765 
	C1195.714722,1018.996765 1193.836914,1018.996765 1191.561035,1018.996765 
	C1191.561035,1006.539185 1191.561035,993.989319 1191.561035,980.528320 
	C1193.938721,981.046326 1196.187378,981.536255 1198.436035,982.026184 
	C1198.421509,982.431946 1198.406982,982.837769 1198.392456,983.243591 
	C1199.195435,982.750122 1199.978394,982.220093 1200.804443,981.768677 
	C1208.778320,977.411621 1216.315918,981.177124 1216.896240,990.302734 
	C1217.455566,999.097168 1217.180542,1007.944702 1217.260620,1017.187622 
z"/>
<path fill="#D89B2D" opacity="1.000000" stroke="none" 
	d="
M816.446777,1019.854370 
	C803.537048,1020.317200 798.211853,1015.371765 798.101074,1002.913208 
	C798.065857,998.950867 798.244080,994.889587 799.079224,991.037231 
	C800.673950,983.680603 805.903381,979.813049 813.002197,980.049622 
	C819.970947,980.281921 823.747437,983.639160 825.246277,991.410583 
	C825.866211,994.625183 825.876953,997.957275 826.220154,1001.867493 
	C818.811768,1001.867493 811.915771,1001.867493 804.915833,1001.867493 
	C804.420044,1006.770386 804.621826,1011.077942 808.893860,1013.330444 
	C813.686890,1015.857727 818.254028,1014.443054 822.028137,1010.742310 
	C826.425903,1013.395142 825.417053,1015.715271 821.923401,1017.734009 
	C820.362427,1018.636047 818.561340,1019.122437 816.446777,1019.854370 
M817.137329,987.409973 
	C814.232117,987.109497 810.413330,985.541870 808.644348,986.817322 
	C806.230225,988.557922 805.377747,992.464355 803.410583,996.313416 
	C809.869080,996.313416 814.536133,996.313416 820.077576,996.313416 
	C819.156555,993.161316 818.400818,990.574829 817.137329,987.409973 
z"/>
<path fill="#D79B2B" opacity="1.000000" stroke="none" 
	d="
M632.922119,1000.024292 
	C633.317078,996.266418 633.286621,992.861816 634.193726,989.728638 
	C636.155212,982.953735 641.578613,979.545044 648.605774,980.089355 
	C654.992249,980.584045 658.752869,984.127075 660.009460,991.214783 
	C660.584045,994.455872 660.698914,997.778503 661.088745,1001.739685 
	C653.609314,1001.739685 646.567688,1001.739685 639.325623,1001.739685 
	C639.312256,1006.600647 639.386658,1010.960266 643.568054,1013.274963 
	C648.357849,1015.926514 652.856995,1014.333618 657.095154,1010.614197 
	C658.220215,1011.889282 659.241699,1013.046936 660.223267,1014.159424 
	C655.389160,1019.797852 649.238525,1021.486877 642.463806,1019.289673 
	C636.816833,1017.458252 633.564697,1012.906738 633.041016,1005.980042 
	C632.903442,1004.160950 632.956360,1002.327515 632.922119,1000.024292 
M648.897095,985.728455 
	C641.865906,985.526794 639.306030,988.431396 639.675354,996.321289 
	C644.386047,996.321289 649.097229,996.321289 654.005432,996.321289 
	C654.206726,991.869629 654.117188,987.977356 648.897095,985.728455 
z"/>
<path fill="#D89B2D" opacity="1.000000" stroke="none" 
	d="
M1368.235840,1013.637085 
	C1364.145630,1005.775269 1364.341797,997.881348 1366.567871,990.034424 
	C1368.346924,983.763672 1373.678833,980.093506 1379.958008,980.026489 
	C1386.515747,979.956482 1392.411255,983.568054 1393.724121,990.074280 
	C1394.881592,995.810547 1394.941528,1001.954407 1394.354980,1007.804932 
	C1393.749756,1013.841980 1389.945068,1018.297485 1383.769653,1019.658875 
	C1377.618286,1021.014954 1372.218384,1019.427917 1368.235840,1013.637085 
M1375.139038,1012.576477 
	C1380.914673,1015.878662 1386.574341,1014.697083 1387.528809,1009.111267 
	C1388.510254,1003.367981 1388.181519,997.262390 1387.493408,991.425354 
	C1387.094971,988.045044 1384.234863,985.713440 1380.295044,985.694519 
	C1376.396240,985.675842 1373.801880,987.762085 1372.931396,991.269836 
	C1371.191284,998.281982 1370.355957,1005.370544 1375.139038,1012.576477 
z"/>
<path fill="#D89B2D" opacity="1.000000" stroke="none" 
	d="
M1233.009766,1018.236633 
	C1222.728882,1013.030762 1223.795532,990.606873 1229.592407,984.536438 
	C1237.068604,976.707458 1250.955811,979.189392 1253.595093,989.920471 
	C1255.191284,996.409973 1255.001465,1003.887268 1253.522949,1010.449524 
	C1251.557251,1019.174622 1242.616455,1022.094116 1233.009766,1018.236633 
M1248.650391,995.260010 
	C1248.427612,994.286194 1248.276123,993.289307 1247.969604,992.342651 
	C1246.757935,988.598511 1244.722656,985.758118 1240.307251,985.703308 
	C1235.873657,985.648315 1233.066772,988.402344 1232.676758,992.201660 
	C1232.110718,997.718018 1232.279053,1003.427734 1233.059448,1008.923584 
	C1233.594727,1012.692871 1236.794922,1014.679199 1240.860352,1014.442627 
	C1244.940918,1014.205078 1247.419067,1011.879883 1247.982422,1008.005676 
	C1248.552490,1004.084900 1248.539551,1000.079407 1248.650391,995.260010 
z"/>
<path fill="#D89B2D" opacity="1.000000" stroke="none" 
	d="
M1006.988037,1009.687988 
	C1003.178223,1017.851196 998.307434,1020.859924 990.921082,1019.948547 
	C984.435486,1019.148438 979.594543,1014.281616 978.666382,1006.222412 
	C978.087952,1001.199951 978.342163,995.902649 979.281067,990.928406 
	C980.523315,984.347046 986.080017,980.257507 992.448730,980.031738 
	C999.239075,979.790955 1005.358582,983.352905 1006.635132,990.121216 
	C1007.804138,996.320007 1007.009827,1002.888977 1006.988037,1009.687988 
M990.500793,1014.052612 
	C994.461304,1015.253784 998.119019,1014.534485 999.815674,1010.665283 
	C1002.866638,1003.707520 1003.024597,996.390686 999.574829,989.519775 
	C997.154907,984.700012 990.822998,984.297058 987.464661,988.283691 
	C982.611084,994.045288 983.960938,1008.863464 990.500793,1014.052612 
z"/>
<path fill="#D69826" opacity="1.000000" stroke="none" 
	d="
M1162.447266,992.454285 
	C1162.423462,1001.528320 1162.423462,1010.144836 1162.423462,1019.065796 
	C1160.214233,1019.065796 1158.464233,1019.065796 1156.358398,1019.065796 
	C1156.358398,1006.546326 1156.358398,994.014038 1156.358398,980.539612 
	C1158.654663,981.176514 1160.674194,981.736633 1162.693604,982.296692 
	C1162.620972,982.767700 1162.548218,983.238647 1162.475586,983.709656 
	C1163.023804,983.406677 1163.597778,983.142090 1164.116699,982.795166 
	C1173.022339,976.841858 1181.239380,980.761780 1181.777466,991.618774 
	C1182.221313,1000.574463 1181.868042,1009.569702 1181.868042,1018.961304 
	C1179.915039,1018.961304 1178.050781,1018.961304 1175.555420,1018.961304 
	C1175.555420,1013.017090 1175.556763,1007.081970 1175.554810,1001.146912 
	C1175.553955,998.817749 1175.668823,996.480164 1175.511353,994.161316 
	C1175.277832,990.724976 1175.613281,986.725830 1170.868286,985.974182 
	C1166.261475,985.244446 1163.755371,987.872864 1162.447266,992.454285 
z"/>
<path fill="#D69826" opacity="1.000000" stroke="none" 
	d="
M1034.059082,1011.698364 
	C1034.758545,1009.133667 1035.489990,1006.909424 1035.544556,1004.668701 
	C1035.726196,997.189392 1035.660522,989.704163 1035.713135,982.221375 
	C1035.715210,981.917908 1035.954590,981.616211 1036.174927,981.098633 
	C1037.865356,981.098633 1039.645386,981.098633 1041.714722,981.098633 
	C1041.714722,993.747559 1041.714722,1006.298462 1041.714722,1019.624878 
	C1039.380615,1019.185852 1037.329834,1018.800110 1035.279053,1018.414368 
	C1035.360107,1018.008911 1035.441162,1017.603455 1035.522217,1017.197937 
	C1033.559814,1018.055359 1031.671265,1019.215637 1029.621704,1019.715637 
	C1022.346985,1021.490234 1016.714600,1017.251282 1016.270935,1008.945129 
	C1015.784973,999.847839 1016.160278,990.704529 1016.160278,981.233154 
	C1018.216370,981.233154 1020.085083,981.233154 1022.394287,981.233154 
	C1022.394287,987.841003 1022.387939,994.305603 1022.398071,1000.770203 
	C1022.401184,1002.765381 1022.341125,1004.768799 1022.495422,1006.754089 
	C1023.107300,1014.626465 1027.159546,1016.502808 1034.059082,1011.698364 
z"/>
<path fill="#D89C2E" opacity="1.000000" stroke="none" 
	d="
M1428.705322,988.772949 
	C1428.799805,998.996033 1428.799805,1008.798584 1428.799805,1019.007080 
	C1426.994141,1019.007080 1425.137451,1019.007080 1422.872681,1019.007080 
	C1422.872681,1013.390808 1422.895386,1007.928711 1422.864136,1002.466919 
	C1422.844971,999.140686 1422.859619,995.807434 1422.646973,992.490967 
	C1422.399780,988.637024 1421.073486,985.429077 1416.380493,985.925537 
	C1412.158936,986.372070 1409.802368,989.009949 1409.745850,993.253479 
	C1409.633301,1001.723267 1409.712524,1010.195496 1409.712524,1019.040894 
	C1407.543823,1019.040894 1405.655396,1019.040894 1403.429932,1019.040894 
	C1403.429932,1006.458801 1403.429932,993.915894 1403.429932,980.469055 
	C1405.901978,981.046021 1408.144287,981.569275 1411.466675,982.344666 
	C1420.262939,977.823792 1425.380737,979.307251 1428.705322,988.772949 
z"/>
<path fill="#D89C2E" opacity="1.000000" stroke="none" 
	d="
M674.696167,1004.007263 
	C674.696045,1009.286621 674.696045,1014.069824 674.696045,1019.128784 
	C672.332275,1019.128784 670.436157,1019.128784 668.322998,1019.128784 
	C668.322998,1006.420959 668.322998,993.997070 668.322998,980.572327 
	C670.858276,981.074829 673.217834,981.542542 675.577393,982.010254 
	C675.516052,982.385132 675.454773,982.760071 675.393433,983.134949 
	C676.680603,982.409058 677.915833,981.563782 679.263611,980.977234 
	C686.376465,977.881653 693.308899,981.855957 693.779419,990.037109 
	C694.330322,999.615479 693.908264,1009.249817 693.908264,1019.134644 
	C691.925720,1019.134644 690.175293,1019.134644 687.878296,1019.134644 
	C687.878296,1011.857910 687.892761,1004.760803 687.868347,997.663940 
	C687.862000,995.837585 687.824524,994.002563 687.641968,992.187561 
	C687.274780,988.536072 685.973633,985.551880 681.577454,985.900818 
	C677.307312,986.239868 674.978149,988.827820 674.743774,993.039001 
	C674.550049,996.519714 674.699158,1000.019653 674.696167,1004.007263 
z"/>
<path fill="#D89B2D" opacity="1.000000" stroke="none" 
	d="
M1442.562622,1007.954346 
	C1444.786865,1011.610046 1446.714844,1015.399353 1451.616577,1014.328308 
	C1453.564087,1013.902710 1456.241333,1012.304199 1456.672607,1010.718994 
	C1457.105103,1009.128845 1455.642822,1006.271545 1454.134155,1005.076904 
	C1451.720337,1003.165405 1448.568604,1002.195740 1445.753296,1000.779297 
	C1439.544800,997.655701 1437.390991,993.610107 1438.932861,988.055115 
	C1440.413086,982.721863 1445.885620,979.458313 1452.294067,980.086853 
	C1458.668457,980.712097 1462.418335,984.602173 1462.859131,991.328369 
	C1459.920898,992.174866 1457.784790,992.434143 1455.789062,988.855774 
	C1454.810791,987.101807 1451.193970,986.277344 1448.711182,986.143127 
	C1447.543701,986.079895 1445.034424,988.874634 1445.246826,989.961304 
	C1445.649536,992.023193 1447.194214,994.340393 1448.953125,995.551880 
	C1451.922485,997.597168 1455.512207,998.713928 1458.686035,1000.497192 
	C1462.360474,1002.561646 1464.028076,1005.930359 1463.575806,1010.115417 
	C1463.108521,1014.439758 1460.761475,1017.448608 1456.646851,1019.060547 
	C1447.640015,1022.588745 1439.047241,1017.964783 1437.385620,1007.889099 
	C1439.062012,1007.889099 1440.611328,1007.889099 1442.562622,1007.954346 
z"/>
<path fill="#D79B2B" opacity="1.000000" stroke="none" 
	d="
M1262.830444,991.358276 
	C1261.765137,987.826721 1260.803833,984.684998 1259.823364,981.480286 
	C1264.242554,980.011597 1266.528931,980.801392 1267.496704,985.551270 
	C1269.017700,993.015137 1271.286987,1000.326477 1273.627808,1009.169861 
	C1276.286133,998.901428 1278.591919,989.995117 1280.923218,980.989624 
	C1282.961670,980.989624 1284.743042,980.989624 1287.216431,980.989624 
	C1286.370605,984.096619 1285.658325,986.911987 1284.836670,989.695068 
	C1282.250244,998.454651 1279.714844,1007.231873 1276.915283,1015.923584 
	C1276.474854,1017.291077 1274.800781,1019.103271 1273.632812,1019.151367 
	C1272.520996,1019.197205 1270.701416,1017.406555 1270.268555,1016.073914 
	C1267.652344,1008.021057 1265.345093,999.867798 1262.830444,991.358276 
z"/>
<path fill="#D9A036" opacity="1.000000" stroke="none" 
	d="
M1330.168945,995.042480 
	C1330.169067,991.915833 1330.169067,989.282593 1330.169067,986.366089 
	C1328.265015,986.127563 1326.679565,985.928955 1324.662354,985.676208 
	C1324.538818,984.355530 1324.408569,982.962585 1324.251953,981.287598 
	C1326.272583,980.903015 1327.990601,980.575989 1329.905640,980.211487 
	C1330.079712,977.385742 1330.249756,974.624207 1330.437012,971.584229 
	C1332.464478,971.584229 1334.222778,971.584229 1336.468628,971.584229 
	C1336.682739,974.440491 1336.898682,977.321716 1337.123413,980.319031 
	C1338.967041,980.586670 1340.568726,980.819153 1342.309814,981.071960 
	C1342.309814,982.672913 1342.309814,984.089172 1342.309814,985.716736 
	C1340.465942,985.900757 1338.879028,986.059143 1336.898926,986.256775 
	C1336.898926,994.563293 1336.661499,1002.675842 1337.101562,1010.751526 
	C1337.188354,1012.343323 1339.886353,1013.792786 1341.380127,1015.307861 
	C1341.917358,1015.173218 1342.454468,1015.038635 1342.991699,1014.903992 
	C1342.347046,1016.522766 1341.567871,1019.571594 1341.079956,1019.525757 
	C1338.148804,1019.250000 1334.588745,1019.044861 1332.606934,1017.280273 
	C1330.866089,1015.730347 1330.484131,1012.199768 1330.275635,1009.484497 
	C1329.920532,1004.859497 1330.172241,1000.187927 1330.168945,995.042480 
z"/>
<path fill="#D9A036" opacity="1.000000" stroke="none" 
	d="
M903.116821,994.062256 
	C903.116882,991.271545 903.116882,988.969666 903.116882,986.348999 
	C901.243286,986.123047 899.659607,985.932129 897.507568,985.672607 
	C897.438904,984.251038 897.365601,982.733521 897.286255,981.090515 
	C899.365845,980.812439 900.976196,980.597107 902.866516,980.344360 
	C903.026794,977.459473 903.179871,974.705383 903.351013,971.624756 
	C905.432861,971.624756 907.305420,971.624756 909.464294,971.624756 
	C909.659973,974.604675 909.841125,977.363586 910.030884,980.253418 
	C911.824158,980.542786 913.419495,980.800171 915.242554,981.094299 
	C915.242554,982.615112 915.242554,984.027588 915.242554,985.723816 
	C913.463318,985.900818 911.879517,986.058411 909.839050,986.261414 
	C909.839050,994.502380 909.609558,1002.602417 910.034363,1010.668030 
	C910.118469,1012.265442 912.715942,1013.730530 914.154419,1015.256592 
	C914.731018,1015.119324 915.307617,1014.982056 915.884216,1014.844788 
	C915.248962,1016.475891 914.481384,1019.546570 914.000122,1019.502258 
	C911.073914,1019.233276 907.515808,1019.037842 905.539673,1017.278137 
	C903.802368,1015.731079 903.411987,1012.199097 903.223022,1009.488342 
	C902.877380,1004.530884 903.119690,999.532471 903.116821,994.062256 
z"/>
<path fill="#D89C2E" opacity="1.000000" stroke="none" 
	d="
M620.903015,990.194885 
	C620.903870,996.647766 620.982666,1002.627258 620.877563,1008.603516 
	C620.812317,1012.311890 621.584351,1015.017273 627.579712,1013.901184 
	C626.398865,1016.502258 625.473450,1019.632080 624.924561,1019.567322 
	C622.017456,1019.224670 618.373901,1018.866028 616.595825,1016.988159 
	C614.849060,1015.143311 614.566162,1011.490540 614.456726,1008.600159 
	C614.181274,1001.320740 614.365601,994.023926 614.365601,986.434875 
	C612.521484,986.179871 610.940063,985.961182 608.807983,985.666382 
	C608.743164,984.260437 608.673035,982.739380 608.598694,981.125977 
	C610.646179,980.810425 612.241150,980.564575 614.076233,980.281738 
	C614.257690,977.387451 614.430542,974.629639 614.620056,971.605103 
	C616.650330,971.605103 618.398804,971.605103 620.691040,971.605103 
	C620.814270,974.390503 620.935486,977.132263 621.070740,980.189453 
	C622.849854,980.521301 624.561584,980.840637 626.454651,981.193726 
	C626.454651,982.652527 626.454651,984.060486 626.454651,985.619324 
	C623.947205,986.299805 619.955017,984.946838 620.903015,990.194885 
z"/>
<path fill="#D89B2D" opacity="1.000000" stroke="none" 
	d="
M705.386963,977.915771 
	C705.393066,975.664001 705.393066,973.862427 705.393066,971.690430 
	C707.657349,971.690430 709.521240,971.690430 711.696777,971.690430 
	C711.835266,974.642822 711.965027,977.409912 712.107910,980.457214 
	C713.799744,980.693542 715.389771,980.915710 717.428894,981.200562 
	C717.520630,982.499512 717.618347,983.883179 717.737122,985.564758 
	C715.794189,985.799255 714.194336,985.992371 712.008728,986.256165 
	C712.008728,994.424377 711.767273,1002.694214 712.223877,1010.925415 
	C712.309448,1012.468872 715.186096,1013.857361 717.717163,1016.183350 
	C717.498840,1016.653076 716.605347,1019.622681 716.066956,1019.559631 
	C713.147095,1019.217773 709.488647,1018.926514 707.687500,1017.066101 
	C705.924377,1015.244873 705.606262,1011.580444 705.494202,1008.692383 
	C705.211060,1001.397034 705.400391,994.083374 705.400391,986.437866 
	C703.602173,986.186340 702.021545,985.965210 699.965149,985.677612 
	C699.829346,984.433899 699.679138,983.058228 699.629211,982.600830 
	C701.954895,980.888428 703.667908,979.627197 705.386963,977.915771 
z"/>
<path fill="#D69826" opacity="1.000000" stroke="none" 
	d="
M964.463013,995.221680 
	C964.462463,1003.319153 964.462463,1010.944153 964.462463,1018.970581 
	C962.308533,1018.970581 960.440613,1018.970581 958.292114,1018.970581 
	C958.292114,1006.391235 958.292114,993.857483 958.292114,980.574951 
	C960.783997,981.103027 962.912415,981.554016 965.565918,982.116333 
	C967.513550,981.475403 970.305786,980.556519 973.731934,979.429077 
	C973.862915,982.373047 973.941589,984.141174 974.041748,986.392395 
	C968.248413,986.299438 964.052673,988.091187 964.463013,995.221680 
z"/>
<path fill="#D69826" opacity="1.000000" stroke="none" 
	d="
M789.558777,980.193787 
	C795.351929,979.553345 793.566345,983.293579 793.634216,985.988037 
	C784.433716,987.910767 784.052185,988.387512 784.051880,997.796448 
	C784.051636,1004.778442 784.051819,1011.760376 784.051819,1019.057129 
	C782.034668,1019.057129 780.286682,1019.057129 778.191772,1019.057129 
	C778.191772,1006.458618 778.191772,993.920349 778.191772,980.641968 
	C780.487366,981.065735 782.483093,981.434143 784.478821,981.802612 
	C784.406067,982.268738 784.333252,982.734924 784.260498,983.201050 
	C785.899414,982.223511 787.538330,981.245972 789.558777,980.193787 
z"/>
<path fill="#D9A036" opacity="1.000000" stroke="none" 
	d="
M1353.195557,980.714355 
	C1355.735352,980.507202 1356.961914,980.982300 1356.934204,983.625610 
	C1356.812134,995.275085 1356.881470,1006.926575 1356.881470,1019.016479 
	C1354.792114,1019.016479 1352.910400,1019.016479 1350.225220,1019.016479 
	C1350.225220,1015.419434 1350.225098,1011.674500 1350.225220,1007.929565 
	C1350.225342,1000.101868 1350.111694,992.270874 1350.340698,984.449890 
	C1350.377808,983.183350 1351.937256,981.961426 1353.195557,980.714355 
z"/>
<path fill="#D69824" opacity="1.000000" stroke="none" 
	d="
M1144.871216,981.002075 
	C1145.583618,985.162781 1145.989746,989.237854 1146.043213,993.317505 
	C1146.153687,1001.750916 1146.076416,1010.186829 1146.076416,1018.913757 
	C1143.919678,1018.913757 1142.197388,1018.913757 1140.184570,1018.913757 
	C1140.184570,1006.401978 1140.184570,994.019409 1140.184570,981.189209 
	C1141.573120,981.100220 1142.989136,981.009399 1144.871216,981.002075 
z"/>
<path fill="#D69826" opacity="1.000000" stroke="none" 
	d="
M1139.969482,968.694214 
	C1141.957520,968.212646 1143.886597,967.752869 1145.602173,968.170532 
	C1146.073608,968.285278 1146.416992,971.253357 1145.862793,972.480286 
	C1145.458252,973.376465 1142.630859,974.271667 1142.361938,973.946106 
	C1141.217773,972.560913 1140.624512,970.720886 1139.969482,968.694214 
z"/>
<path fill="#D89C2E" opacity="1.000000" stroke="none" 
	d="
M1356.953613,971.746094 
	C1355.052979,972.619385 1353.240234,973.086792 1351.427612,973.554138 
	C1351.056152,972.059875 1350.150391,970.427185 1350.489990,969.117249 
	C1350.740967,968.148865 1353.323486,966.748535 1353.642090,967.013550 
	C1355.020996,968.160278 1355.949219,969.848755 1356.953613,971.746094 
z"/>
<path fill="#FFFEFE" opacity="1.000000" stroke="none" 
	d="
M685.000000,696.647949 
	C715.650391,696.775208 745.808899,696.530029 775.947937,697.182922 
	C791.639465,697.522827 807.060852,700.473572 821.204407,707.958679 
	C837.548889,716.608582 845.968933,730.227417 846.015747,748.728455 
	C846.030823,754.690430 845.638611,760.735413 844.624512,766.602783 
	C841.443848,785.005981 829.767395,795.622681 812.411621,800.967712 
	C798.571289,805.230042 784.343567,806.562073 770.017029,806.648560 
	C735.701111,806.855774 701.383057,806.719910 667.065857,806.702820 
	C665.617676,806.702087 664.169556,806.503113 662.477539,806.378540 
	C662.477539,769.794922 662.477539,733.566162 662.477539,696.648132 
	C669.960999,696.648132 677.230530,696.648132 685.000000,696.647949 
z"/>
<path fill="#FFFEFD" opacity="1.000000" stroke="none" 
	d="
M681.001343,633.782227 
	C674.691650,633.782166 668.881409,633.782166 662.638916,633.782166 
	C662.638916,598.914917 662.638916,564.407410 662.638916,529.482910 
	C664.338318,529.391296 665.948364,529.229675 667.558594,529.228760 
	C694.541260,529.214111 721.524902,529.081299 748.506226,529.274109 
	C763.672852,529.382507 778.745178,530.482056 793.174622,535.944153 
	C810.522400,542.510864 819.899658,555.274292 821.816040,573.362061 
	C822.561096,580.393860 822.575806,587.762329 821.340027,594.695251 
	C817.923584,613.862732 804.673340,624.450623 786.900085,628.696899 
	C774.079773,631.759888 760.661011,633.110596 747.451355,633.572571 
	C725.492310,634.340576 703.486816,633.782104 681.001343,633.782227 
z"/>
<path fill="#FEFDFA" opacity="1.000000" stroke="none" 
	d="
M1056.635254,1000.005127 
	C1056.901245,996.738281 1056.824097,993.857849 1057.513550,991.174500 
	C1058.575317,987.042542 1061.657593,985.248047 1065.837036,985.937439 
	C1069.785645,986.588867 1071.849121,989.069458 1071.819214,993.182190 
	C1071.785522,997.820435 1071.827271,1002.459167 1071.805420,1007.097595 
	C1071.786133,1011.193909 1069.700073,1013.647949 1065.676758,1014.196838 
	C1061.493042,1014.767517 1058.417236,1013.049072 1057.432617,1008.852478 
	C1056.798218,1006.148132 1056.876587,1003.276489 1056.635254,1000.005127 
z"/>
<path fill="#FFFEFD" opacity="1.000000" stroke="none" 
	d="
M557.077820,973.380493 
	C562.618713,975.990479 564.838745,980.538147 563.629272,986.088501 
	C562.465271,991.429993 560.011597,993.160095 553.438232,993.230530 
	C550.818481,993.258606 548.198242,993.235107 545.289734,993.235107 
	C545.289734,986.415344 545.289734,980.030762 545.289734,973.262878 
	C549.155090,973.262878 552.914001,973.262878 557.077820,973.380493 
z"/>
<path fill="#FEFDFA" opacity="1.000000" stroke="none" 
	d="
M754.275146,1014.212036 
	C749.673157,1013.120117 747.916138,1010.394897 748.038513,1006.142395 
	C748.162781,1001.823547 748.015930,997.497620 748.081055,993.176086 
	C748.146118,988.859802 750.480347,986.392639 754.685486,985.884827 
	C759.004578,985.363220 762.188293,987.487183 762.618225,991.629639 
	C763.196167,997.198181 763.174744,1002.915466 762.609253,1008.487610 
	C762.185425,1012.664124 759.013855,1014.637573 754.275146,1014.212036 
z"/>
<path fill="#FEFDFA" opacity="1.000000" stroke="none" 
	d="
M1312.166992,1008.503601 
	C1310.719360,1013.774353 1306.862427,1014.943054 1302.853516,1013.701660 
	C1301.150635,1013.174438 1299.369873,1009.858398 1299.295654,1007.751160 
	C1299.145630,1003.483459 1302.335449,1001.450867 1306.352783,1000.975281 
	C1308.091797,1000.769348 1309.875488,1000.940674 1312.178467,1000.940674 
	C1312.178467,1003.540222 1312.178467,1005.803528 1312.166992,1008.503601 
z"/>
<path fill="#FEFDFA" opacity="1.000000" stroke="none" 
	d="
M851.912720,1010.228027 
	C849.077759,1013.991577 845.393738,1015.449524 841.787170,1013.297546 
	C840.185425,1012.341858 839.201599,1008.711426 839.520630,1006.526245 
	C840.133362,1002.329285 843.721375,1001.002808 847.660400,1000.848511 
	C848.949646,1000.798035 850.242493,1000.840637 852.063110,1000.840637 
	C852.063110,1004.025940 852.063110,1006.926147 851.912720,1010.228027 
z"/>
<path fill="#FEFDFA" opacity="1.000000" stroke="none" 
	d="
M586.550171,1013.869995 
	C582.749695,1011.550293 582.411194,1008.355347 584.031433,1005.126831 
	C586.506226,1000.195251 591.184082,1000.803162 595.563660,1000.866882 
	C597.869324,1010.715515 595.482788,1014.224304 586.550171,1013.869995 
z"/>
<path fill="#FCF8F0" opacity="1.000000" stroke="none" 
	d="
M817.391174,987.699158 
	C818.400818,990.574829 819.156555,993.161316 820.077576,996.313416 
	C814.536133,996.313416 809.869080,996.313416 803.410583,996.313416 
	C805.377747,992.464355 806.230225,988.557922 808.644348,986.817322 
	C810.413330,985.541870 814.232117,987.109497 817.391174,987.699158 
z"/>
<path fill="#FCF8F0" opacity="1.000000" stroke="none" 
	d="
M649.256714,985.825623 
	C654.117188,987.977356 654.206726,991.869629 654.005432,996.321289 
	C649.097229,996.321289 644.386047,996.321289 639.675354,996.321289 
	C639.306030,988.431396 641.865906,985.526794 649.256714,985.825623 
z"/>
<path fill="#FEFDFA" opacity="1.000000" stroke="none" 
	d="
M1374.870605,1012.271484 
	C1370.355957,1005.370544 1371.191284,998.281982 1372.931396,991.269836 
	C1373.801880,987.762085 1376.396240,985.675842 1380.295044,985.694519 
	C1384.234863,985.713440 1387.094971,988.045044 1387.493408,991.425354 
	C1388.181519,997.262390 1388.510254,1003.367981 1387.528809,1009.111267 
	C1386.574341,1014.697083 1380.914673,1015.878662 1374.870605,1012.271484 
z"/>
<path fill="#FEFDFA" opacity="1.000000" stroke="none" 
	d="
M1248.716309,995.685547 
	C1248.539551,1000.079407 1248.552490,1004.084900 1247.982422,1008.005676 
	C1247.419067,1011.879883 1244.940918,1014.205078 1240.860352,1014.442627 
	C1236.794922,1014.679199 1233.594727,1012.692871 1233.059448,1008.923584 
	C1232.279053,1003.427734 1232.110718,997.718018 1232.676758,992.201660 
	C1233.066772,988.402344 1235.873657,985.648315 1240.307251,985.703308 
	C1244.722656,985.758118 1246.757935,988.598511 1247.969604,992.342651 
	C1248.276123,993.289307 1248.427612,994.286194 1248.716309,995.685547 
z"/>
<path fill="#FEFDFA" opacity="1.000000" stroke="none" 
	d="
M990.145508,1013.933228 
	C983.960938,1008.863464 982.611084,994.045288 987.464661,988.283691 
	C990.822998,984.297058 997.154907,984.700012 999.574829,989.519775 
	C1003.024597,996.390686 1002.866638,1003.707520 999.815674,1010.665283 
	C998.119019,1014.534485 994.461304,1015.253784 990.145508,1013.933228 
z"/>
</svg>